<?xml version="1.0" encoding="utf-8"?>
<!-- Generator: Adobe Illustrator 23.0.1, SVG Export Plug-In . SVG Version: 6.00 Build 0)  -->
<svg version="1.1" id="Layer_1" xmlns="http://www.w3.org/2000/svg" xmlns:xlink="http://www.w3.org/1999/xlink" x="0px" y="0px"
	 viewBox="0 0 739 489" style="enable-background:new 0 0 739 489;" xml:space="preserve">
<style type="text/css">
	.st0{fill:#E6E6E6;}
	.st1{fill:#FFFFFF;}
	.st2{fill:#F2F2F2;}
	.st3{fill:#6C63FF;}
	.st4{fill:#CCCCCC;}
	.st5{fill:#CACACA;}
	.st6{fill:#3F3D56;}
	.st7{opacity:0.2;enable-background:new    ;}
	.st8{fill:#2F2E41;}
</style>
<path class="st0" d="M708.7,487.5H491.3c-7.9,0-15.5-3.2-21.1-8.7c-5.6-5.6-8.7-13.2-8.7-21.1V114.8c0-7.9,3.2-15.5,8.7-21.1
	c5.6-5.6,13.2-8.7,21.1-8.7h217.3c7.9,0,15.5,3.2,21.1,8.7c5.6,5.6,8.7,13.2,8.7,21.1v342.8c0,7.9-3.2,15.5-8.7,21.1
	C724.2,484.3,716.6,487.5,708.7,487.5L708.7,487.5z"/>
<path class="st1" d="M712.3,102.8H490.9c-2.5,0-4.8,1-6.6,2.7c-1.8,1.8-2.7,4.1-2.7,6.6v347.3c0,2.5,1,4.8,2.7,6.6s4.1,2.7,6.6,2.7
	h221.4c2.5,0,4.8-1,6.6-2.7c1.8-1.8,2.7-4.1,2.7-6.6V112.1c0-2.5-1-4.8-2.7-6.6C717.1,103.8,714.8,102.8,712.3,102.8L712.3,102.8z"
	/>
<path class="st0" d="M496.6,85c0-0.6,0.2-1.2,0.7-1.6c0.4-0.4,1-0.7,1.6-0.7h15.5c0.6,0,1.2,0.2,1.6,0.7c0.4,0.4,0.7,1,0.7,1.6
	c0,0.6-0.2,1.2-0.7,1.6c-0.4,0.4-1,0.7-1.6,0.7h-15.5c-0.6,0-1.2-0.2-1.6-0.7C496.9,86.2,496.6,85.6,496.6,85z"/>
<path class="st0" d="M522.2,85c0-0.6,0.2-1.2,0.7-1.6c0.4-0.4,1-0.7,1.6-0.7H540c0.6,0,1.2,0.2,1.6,0.7c0.4,0.4,0.7,1,0.7,1.6
	c0,0.6-0.2,1.2-0.7,1.6s-1,0.7-1.6,0.7h-15.5c-0.6,0-1.2-0.2-1.6-0.7C522.4,86.2,522.2,85.6,522.2,85z"/>
<path class="st0" d="M675.5,85c0-0.6,0.2-1.2,0.7-1.6c0.4-0.4,1-0.7,1.6-0.7h15.5c0.6,0,1.2,0.2,1.6,0.7c0.4,0.4,0.7,1,0.7,1.6
	c0,0.6-0.2,1.2-0.7,1.6c-0.4,0.4-1,0.7-1.6,0.7h-15.5c-0.6,0-1.2-0.2-1.6-0.7C675.8,86.2,675.5,85.6,675.5,85L675.5,85z"/>
<path class="st2" d="M632.3,461.6c0,2.4,0,4.8-0.2,7.2H490.9c-2.5,0-4.8-1-6.6-2.7s-2.7-4.1-2.7-6.6V284.6
	c42,6.8,80.3,28.3,107.9,60.8S632.3,419,632.3,461.6z"/>
<path class="st3" d="M627.5,192.1h-52.7c-2.4,0-4.3,1.9-4.3,4.3v5.4c0,2.4,1.9,4.3,4.3,4.3h52.7c2.4,0,4.3-1.9,4.3-4.3v-5.4
	C631.8,194,629.9,192.1,627.5,192.1z"/>
<path class="st0" d="M660.9,220.2H541.3c-2.4,0-4.3,1.9-4.3,4.3v5.4c0,2.4,1.9,4.3,4.3,4.3h119.6c2.4,0,4.3-1.9,4.3-4.3v-5.4
	C665.3,222.2,663.3,220.2,660.9,220.2z"/>
<path class="st0" d="M660.9,248.4H541.3c-2.4,0-4.3,1.9-4.3,4.3v5.4c0,2.4,1.9,4.3,4.3,4.3h119.6c2.4,0,4.3-1.9,4.3-4.3v-5.4
	C665.3,250.4,663.3,248.4,660.9,248.4z"/>
<path class="st4" d="M640.5,445.1c-0.7,0-1.4-0.1-1.9-0.5s-1-0.9-1.3-1.5c-0.3-0.6-0.3-1.3-0.2-2c0.1-0.7,0.5-1.3,1-1.7l0.2-0.9
	c0-0.1-0.1-0.1-0.1-0.2c-0.7-1.6-1.8-3-3.3-4c-1.5-1-3.2-1.5-5-1.5c-1.8,0-3.5,0.5-5,1.5c-1.5,1-2.6,2.4-3.3,4
	c-2.7,6.5-6.2,13.1-7,20c-0.4,3.1-0.2,6.1,0.5,9.1c-6.4-13.9-9.7-29-9.7-44.3c0-3.8,0.2-7.7,0.6-11.5c0.4-3.1,0.8-6.2,1.5-9.3
	c3.4-16.7,10.7-32.4,21.4-45.7c5.2-2.8,9.3-7.1,11.9-12.4c1-1.9,1.6-3.9,2-6c-0.6,0.1-1.2,0.1-1.8,0.2c-0.2,0-0.4,0-0.6,0l-0.1,0
	c-0.6,0-1.3-0.1-1.8-0.5c-0.6-0.3-1-0.8-1.3-1.4c-0.3-0.6-0.4-1.2-0.3-1.8c0.1-0.6,0.3-1.2,0.7-1.7c0.3-0.3,0.5-0.6,0.8-0.9
	c0.4-0.5,0.8-0.9,1.2-1.4c0,0,0.1-0.1,0.1-0.1c0.4-0.5,0.9-1.1,1.3-1.6c-0.8-1.2-1.9-2.3-3.1-3c-4.4-2.6-10.5-0.8-13.6,3.2
	c-3.2,4-3.8,9.5-2.7,14.5c1.1,4.2,2.9,8.2,5.3,11.9c-0.2,0.3-0.5,0.6-0.7,0.9c-4.4,5.6-8.2,11.6-11.3,18c0.8-7.1-0.1-14.3-2.7-21
	c-2.6-6.2-7.4-11.5-11.7-16.8c-5.1-6.5-15.6-3.6-16.5,4.5c0,0.1,0,0.2,0,0.2c0.6,0.4,1.3,0.7,1.9,1.1c0.8,0.5,1.4,1.2,1.7,2.1
	s0.4,1.8,0.2,2.7c-0.2,0.9-0.7,1.7-1.3,2.3c-0.7,0.6-1.5,1-2.4,1.2l-0.1,0c0.2,2.3,0.6,4.5,1.2,6.8c1.6,6.2,4.6,12,8.5,17
	c4,5,9,9.2,14.6,12.2c0.4,0.2,0.7,0.4,1.1,0.6c-3.2,9.1-5.2,18.5-6,28.1c-0.4,5.6-0.4,11.3,0.1,17l0-0.2c-1.2-6.3-4.6-11.9-9.5-16
	c-7.3-6-17.6-8.2-25.5-13c-0.8-0.5-1.8-0.8-2.8-0.8c-1,0-2,0.3-2.8,0.8s-1.5,1.3-1.9,2.2c-0.4,0.9-0.6,1.9-0.4,2.9
	c0,0.1,0,0.1,0,0.2c1.2,0.5,2.3,1,3.4,1.6c0.6,0.4,1.3,0.7,1.9,1.1c0.8,0.5,1.3,1.2,1.7,2.1s0.4,1.8,0.2,2.7
	c-0.2,0.9-0.7,1.7-1.3,2.3c-0.7,0.6-1.5,1-2.4,1.2l-0.1,0c-0.1,0-0.1,0-0.2,0c2,4.8,4.8,9.2,8.3,13c4.3,4.6,9.5,8.3,15.4,10.9
	s12.1,3.9,18.4,3.9h0c1.7,7.5,4.2,14.8,7.4,21.7h26.6c0.1-0.3,0.2-0.6,0.3-0.9c-2.5,0.2-4.9,0-7.4-0.4c2-2.4,3.9-4.9,5.9-7.3
	c0,0,0.1-0.1,0.1-0.1c1-1.2,2-2.5,3-3.7v0C641.8,452.5,641.4,448.7,640.5,445.1L640.5,445.1z M610,385.2L610,385.2L610,385.2
	L610,385.2z M604.1,438.3l-0.2-0.5c0-0.4,0-0.7,0-1.1c0-0.1,0-0.2,0-0.3C604,437,604,437.6,604.1,438.3L604.1,438.3z"/>
<path class="st5" d="M701.2,133.5H502c-0.4,0-0.8-0.2-1.1-0.5c-0.3-0.3-0.5-0.7-0.5-1.2s0.2-0.8,0.5-1.2c0.3-0.3,0.7-0.5,1.1-0.5
	h199.2c0.4,0,0.8,0.2,1.1,0.5c0.3,0.3,0.5,0.7,0.5,1.2s-0.2,0.8-0.5,1.2C702.1,133.3,701.6,133.5,701.2,133.5L701.2,133.5z"/>
<path class="st6" d="M512.6,125.4c2.7,0,4.8-2.2,4.8-5s-2.2-5-4.8-5c-2.7,0-4.8,2.2-4.8,5S509.9,125.4,512.6,125.4z"/>
<path class="st6" d="M529.4,125.4c2.7,0,4.8-2.2,4.8-5s-2.2-5-4.8-5c-2.7,0-4.8,2.2-4.8,5S526.7,125.4,529.4,125.4z"/>
<path class="st6" d="M546.1,125.4c2.7,0,4.8-2.2,4.8-5s-2.2-5-4.8-5c-2.7,0-4.8,2.2-4.8,5S543.4,125.4,546.1,125.4z"/>
<path class="st6" d="M693.4,117.4h-10.8c-0.2,0-0.4,0.1-0.6,0.2c-0.2,0.2-0.2,0.4-0.2,0.6c0,0.2,0.1,0.4,0.2,0.6
	c0.2,0.2,0.4,0.2,0.6,0.2h10.8c0.2,0,0.4-0.1,0.6-0.2c0.2-0.2,0.2-0.4,0.2-0.6c0-0.2-0.1-0.4-0.2-0.6
	C693.8,117.5,693.6,117.4,693.4,117.4L693.4,117.4z"/>
<path class="st6" d="M693.4,120.5h-10.8c-0.2,0-0.4,0.1-0.6,0.2c-0.2,0.2-0.2,0.4-0.2,0.6c0,0.2,0.1,0.4,0.2,0.6
	c0.2,0.2,0.4,0.2,0.6,0.2h10.8c0.2,0,0.4-0.1,0.6-0.2c0.2-0.2,0.2-0.4,0.2-0.6c0-0.2-0.1-0.4-0.2-0.6
	C693.8,120.6,693.6,120.5,693.4,120.5L693.4,120.5z"/>
<path class="st6" d="M693.4,123.6h-10.8c-0.2,0-0.4,0.1-0.6,0.2c-0.2,0.2-0.2,0.4-0.2,0.6c0,0.2,0.1,0.4,0.2,0.6
	c0.2,0.2,0.4,0.2,0.6,0.2h10.8c0.2,0,0.4-0.1,0.6-0.2c0.2-0.2,0.2-0.4,0.2-0.6c0-0.2-0.1-0.4-0.2-0.6
	C693.8,123.7,693.6,123.6,693.4,123.6z"/>
<path class="st0" d="M561.4,0H67.7c-4.2,0-8.3,1.7-11.3,4.7c-3,3-4.7,7.1-4.7,11.3v333.2c0,4.2,1.7,8.3,4.7,11.3
	c3,3,7.1,4.7,11.3,4.7h493.8c4.2,0,8.3-1.7,11.3-4.7c3-3,4.7-7.1,4.7-11.3V16c0-4.2-1.7-8.3-4.7-11.3C569.8,1.7,565.7,0,561.4,0z"/>
<path class="st1" d="M557.3,11.6H71.8c-2.3,0-4.4,0.9-6.1,2.5c-1.6,1.6-2.5,3.8-2.5,6.1v324.9c0,2.3,0.9,4.4,2.5,6
	c1.6,1.6,3.8,2.5,6,2.5h485.5c2.3,0,4.4-0.9,6-2.5s2.5-3.8,2.5-6V20.1c0-2.3-0.9-4.4-2.5-6.1C561.8,12.5,559.6,11.6,557.3,11.6z"/>
<path class="st3" d="M565.9,20.1v324.9c0,2.3-0.9,4.4-2.5,6s-3.8,2.5-6,2.5H386.1c-18.9-17.6-34.5-38.5-45.8-61.7
	c-0.7-1.5-1.5-3-2.1-4.5c-10.3-22.5-16.6-46.6-18.5-71.2c-0.1-1.5-0.2-3-0.3-4.6c-0.2-3.9-0.3-7.9-0.3-11.9c0-26.5,5-52.8,14.8-77.4
	c0.6-1.5,1.2-3,1.9-4.6c19.7-46.2,55.2-83.9,100.3-106.2h121.5c2.3,0,4.4,0.9,6.1,2.5C565,15.7,565.9,17.9,565.9,20.1z"/>
<path class="st5" d="M532.9,56.3H78.6c-0.5,0-0.9-0.2-1.3-0.5s-0.5-0.8-0.5-1.3c0-0.5,0.2-0.9,0.5-1.3s0.8-0.5,1.3-0.5h454.3
	c0.5,0,0.9,0.2,1.3,0.5c0.3,0.3,0.5,0.8,0.5,1.3c0,0.5-0.2,0.9-0.5,1.3C533.8,56.1,533.4,56.3,532.9,56.3L532.9,56.3z"/>
<path class="st6" d="M109.6,43.5c5.8,0,10.6-4.8,10.6-10.8c0-6-4.7-10.8-10.6-10.8c-5.8,0-10.6,4.8-10.6,10.8
	C99,38.6,103.7,43.5,109.6,43.5z"/>
<path class="st6" d="M146.1,43.5c5.8,0,10.6-4.8,10.6-10.8c0-6-4.7-10.8-10.6-10.8c-5.8,0-10.6,4.8-10.6,10.8
	C135.5,38.6,140.3,43.5,146.1,43.5z"/>
<path class="st6" d="M182.7,43.5c5.8,0,10.6-4.8,10.6-10.8c0-6-4.7-10.8-10.6-10.8c-5.8,0-10.6,4.8-10.6,10.8
	C172.1,38.6,176.9,43.5,182.7,43.5z"/>
<path class="st6" d="M510.9,24.5h-26c-0.5,0-1,0.2-1.4,0.6c-0.4,0.4-0.6,0.9-0.6,1.4c0,0.5,0.2,1,0.6,1.4c0.4,0.4,0.9,0.6,1.4,0.6
	h26c0.5,0,1-0.2,1.4-0.6c0.4-0.4,0.6-0.9,0.6-1.4c0-0.5-0.2-1-0.6-1.4C511.9,24.7,511.4,24.5,510.9,24.5L510.9,24.5z"/>
<path class="st6" d="M510.9,31.9h-26c-0.5,0-1,0.2-1.4,0.6c-0.4,0.4-0.6,0.9-0.6,1.4c0,0.5,0.2,1,0.6,1.4c0.4,0.4,0.9,0.6,1.4,0.6
	h26c0.5,0,1-0.2,1.4-0.6c0.4-0.4,0.6-0.9,0.6-1.4c0-0.5-0.2-1-0.6-1.4C511.9,32.1,511.4,31.9,510.9,31.9L510.9,31.9z"/>
<path class="st6" d="M510.9,39.3h-26c-0.5,0-1,0.2-1.4,0.6c-0.4,0.4-0.6,0.9-0.6,1.4s0.2,1,0.6,1.4c0.4,0.4,0.9,0.6,1.4,0.6h26
	c0.5,0,1-0.2,1.4-0.6c0.4-0.4,0.6-0.9,0.6-1.4s-0.2-1-0.6-1.4C511.9,39.5,511.4,39.3,510.9,39.3L510.9,39.3z"/>
<path class="st3" d="M217.7,161.9h-63.5c-2.4,0-4.3,1.9-4.3,4.3v6.8c0,2.4,1.9,4.3,4.3,4.3h63.5c2.4,0,4.3-1.9,4.3-4.3v-6.8
	C222.1,163.8,220.1,161.9,217.7,161.9z"/>
<path class="st0" d="M254.4,192.8H117.5c-2.4,0-4.3,1.9-4.3,4.3v6.8c0,2.4,1.9,4.3,4.3,4.3h136.9c2.4,0,4.3-1.9,4.3-4.3v-6.8
	C258.7,194.7,256.8,192.8,254.4,192.8z"/>
<path class="st0" d="M254.4,223.6H117.5c-2.4,0-4.3,1.9-4.3,4.3v6.8c0,2.4,1.9,4.3,4.3,4.3h136.9c2.4,0,4.3-1.9,4.3-4.3V228
	C258.7,225.6,256.8,223.6,254.4,223.6z"/>
<path class="st3" d="M125.1,335c0,6.4-1.1,12.7-3.3,18.6H71.8c-2.3,0-4.4-0.9-6-2.5c-1.6-1.6-2.5-3.8-2.5-6v-62.8
	c2.8-0.5,5.6-0.7,8.4-0.7c7,0,14,1.4,20.4,4.1c6.5,2.7,12.4,6.6,17.3,11.6s8.9,10.8,11.6,17.3C123.7,321,125.1,328,125.1,335
	L125.1,335z"/>
<path class="st7" d="M566.3,122.4v-4.6H490V65h-4.5v52.8h-87.5V65h-4.5v52.8h-57.8c-0.6,1.5-1.3,3-1.9,4.6h59.6v89.3h-74.1
	c0.1,1.5,0.2,3,0.3,4.6h73.8v71.2h-55.2c0.7,1.5,1.4,3,2.1,4.5h53.1v59.9h4.5V292h87.5v59.9h4.5V292h76.3v-4.5H490l0,0
	c0-9.4,1.8-18.6,5.4-27.3c3.6-8.6,8.8-16.5,15.4-23.1c6.6-6.6,14.5-11.9,23.1-15.4c8.6-3.6,17.9-5.4,27.3-5.4h5.1v-4.6H490v-89.3
	H566.3z M485.4,287.4h-87.5v-71.2h87.5V287.4z M485.4,211.6h-87.5v-1.8c0-23.2,9.2-45.5,25.6-61.9c16.4-16.4,38.7-25.6,61.9-25.6
	l0,0V211.6z"/>
<path class="st8" d="M504.9,319.9c-1,0-1.9-0.2-2.8-0.7c-0.8-0.5-1.5-1.3-1.8-2.2s-0.5-1.9-0.3-2.8c0.2-1,0.7-1.8,1.4-2.5
	c0.1-0.5,0.2-0.8,0.3-1.3c0-0.1-0.1-0.2-0.1-0.3c-4.4-10.4-19.2-10.4-23.6,0.1c-3.9,9.3-8.8,18.6-10,28.4c-0.5,4.3-0.3,8.7,0.7,13
	c-9-19.7-13.7-41.2-13.8-62.9c0-5.4,0.3-10.9,0.9-16.3c0.5-4.4,1.2-8.8,2.1-13.2c4.8-23.7,15.3-46,30.4-64.9
	c7.3-4,13.2-10.1,17-17.6c1.3-2.7,2.3-5.5,2.8-8.5c-0.8,0.1-1.7,0.2-2.5,0.2c-0.3,0-0.5,0-0.8,0l-0.1,0c-0.9,0-1.8-0.2-2.6-0.6
	c-0.8-0.5-1.4-1.1-1.8-1.9c-0.4-0.8-0.6-1.7-0.5-2.6c0.1-0.9,0.5-1.8,1-2.5c0.4-0.4,0.7-0.9,1.1-1.3c0.5-0.7,1.1-1.3,1.6-2
	c0.1-0.1,0.1-0.1,0.2-0.2c0.6-0.8,1.2-1.5,1.9-2.3c-1.1-1.8-2.7-3.2-4.5-4.3c-6.2-3.7-14.8-1.1-19.4,4.5c-4.5,5.6-5.4,13.6-3.8,20.6
	c1.3,6,4.3,11.6,7.6,16.8c-0.3,0.4-0.7,0.9-1,1.3c-6.2,8-11.6,16.5-16.1,25.5c1.1-10.1-0.2-20.3-3.8-29.8
	c-3.7-8.8-10.5-16.3-16.6-23.9c-7.3-9.2-22.2-5.2-23.4,6.5c0,0.1,0,0.2,0,0.3c0.9,0.5,1.8,1,2.6,1.6c1.1,0.7,1.9,1.8,2.4,3
	c0.5,1.2,0.6,2.5,0.3,3.8s-0.9,2.4-1.9,3.3c-0.9,0.9-2.1,1.5-3.4,1.7l-0.1,0c0.3,3.2,0.9,6.4,1.7,9.6c2.3,8.8,6.5,17,12.1,24.1
	c5.7,7.1,12.7,13,20.8,17.3c0.5,0.3,1,0.5,1.6,0.8c-4.5,12.9-7.4,26.3-8.5,39.9c-0.6,8-0.6,16.1,0.1,24.1l0-0.3
	c-1.7-8.9-6.5-17-13.5-22.8c-10.4-8.5-25-11.6-36.2-18.5c-5.4-3.3-12.3,1-11.3,7.2c0,0.1,0,0.2,0,0.3c1.7,0.7,3.3,1.5,4.9,2.3
	c0.9,0.5,1.8,1,2.6,1.6c1.1,0.7,1.9,1.8,2.4,3c0.5,1.2,0.6,2.5,0.3,3.8c-0.3,1.3-0.9,2.4-1.9,3.3c-0.9,0.9-2.1,1.5-3.4,1.7l-0.1,0
	c-0.1,0-0.2,0-0.3,0c2.8,6.8,6.8,13.1,11.8,18.5c6.1,6.6,13.6,11.9,21.8,15.5c8.2,3.6,17.1,5.5,26.2,5.6h0c2.4,10.6,6,21,10.6,30.9
	h37.8c0.1-0.4,0.3-0.9,0.4-1.3c-3.5,0.2-7,0-10.4-0.6c2.8-3.4,5.6-6.9,8.4-10.3c0.1-0.1,0.1-0.1,0.2-0.2c1.4-1.8,2.9-3.5,4.3-5.3
	l0,0C506.8,330.5,506.2,325.2,504.9,319.9L504.9,319.9z M461.6,234.9L461.6,234.9L461.6,234.9L461.6,234.9z M453.3,310.3l-0.3-0.7
	c0-0.5,0-1.1,0-1.6c0-0.1,0-0.3,0-0.4C453,308.4,453.1,309.3,453.3,310.3L453.3,310.3z"/>
<path class="st0" d="M168.6,231.6v-50.7c0-7.8-3.1-15.3-8.6-20.8c-5.5-5.5-13-8.6-20.8-8.6H31.8c-7.8,0-15.3,3.1-20.8,8.6
	c-5.5,5.5-8.6,13-8.6,20.8v278.4c0,7.8,3.1,15.3,8.6,20.8c5.5,5.5,13,8.6,20.8,8.6h107.5c3.9,0,7.7-0.8,11.2-2.2
	c3.6-1.5,6.8-3.6,9.5-6.4c2.7-2.7,4.9-6,6.4-9.5c1.5-3.6,2.2-7.4,2.2-11.2V267.7c0.5,0,1-0.2,1.3-0.5c0.3-0.3,0.5-0.8,0.5-1.3v-32.4
	c0-0.5-0.2-1-0.5-1.3C169.6,231.8,169.1,231.6,168.6,231.6L168.6,231.6z"/>
<path class="st1" d="M162.4,181.1v278c0,5.8-2.3,11.3-6.3,15.4c-4.1,4.1-9.6,6.4-15.4,6.5c-0.1,0-0.2,0-0.2,0h-108
	c-5.8,0-11.4-2.3-15.5-6.4c-4.1-4.1-6.4-9.7-6.4-15.5v-278c0-5.8,2.3-11.4,6.4-15.5c4.1-4.1,9.7-6.4,15.5-6.4h13.1
	c-0.6,1.6-0.9,3.3-0.7,5c0.2,1.7,0.8,3.3,1.7,4.7c1,1.4,2.2,2.6,3.7,3.4c1.5,0.8,3.2,1.2,4.9,1.2h61.6c1.7,0,3.4-0.4,4.9-1.2
	c1.5-0.8,2.8-2,3.7-3.4c1-1.4,1.5-3,1.7-4.7c0.2-1.7-0.1-3.4-0.7-5h14c5.8,0,11.4,2.3,15.5,6.4C160.1,169.7,162.4,175.3,162.4,181.1
	z"/>
<path class="st2" d="M141,472.4c0,2.9-0.1,5.7-0.3,8.6c-0.1,0-0.2,0-0.2,0h-108c-5.8,0-11.4-2.3-15.5-6.4c-4.1-4.1-6.4-9.7-6.4-15.5
	V335.2c35.2,1.8,68.4,17,92.7,42.5C127.4,403.3,141,437.2,141,472.4L141,472.4z"/>
<path class="st0" d="M3,260c-0.7,0-1.3-0.3-1.8-0.7c-0.5-0.5-0.7-1.1-0.7-1.8v-17c0-0.7,0.3-1.3,0.7-1.8c0.5-0.5,1.1-0.7,1.8-0.7
	s1.3,0.3,1.8,0.7c0.5,0.5,0.7,1.1,0.7,1.8v17c0,0.7-0.3,1.3-0.7,1.8C4.3,259.7,3.7,260,3,260z"/>
<path class="st3" d="M99.7,246.4H73.2c-2.4,0-4.3,1.9-4.3,4.3v6.8c0,2.4,1.9,4.3,4.3,4.3h26.5c2.4,0,4.3-1.9,4.3-4.3v-6.8
	C104.1,248.4,102.1,246.4,99.7,246.4z"/>
<path class="st0" d="M136.4,277.3H36.5c-2.4,0-4.3,1.9-4.3,4.3v6.8c0,2.4,1.9,4.3,4.3,4.3h99.9c2.4,0,4.3-1.9,4.3-4.3v-6.8
	C140.7,279.3,138.8,277.3,136.4,277.3z"/>
<path class="st0" d="M136.4,308.2H36.5c-2.4,0-4.3,1.9-4.3,4.3v6.8c0,2.4,1.9,4.3,4.3,4.3h99.9c2.4,0,4.3-1.9,4.3-4.3v-6.8
	C140.7,310.1,138.8,308.2,136.4,308.2z"/>
<path class="st4" d="M112.4,465.2c-0.5,0-0.9-0.1-1.3-0.3c-0.4-0.2-0.7-0.6-0.9-1c-0.2-0.4-0.2-0.9-0.1-1.3c0.1-0.4,0.3-0.9,0.7-1.2
	l0.2-0.6c0,0,0-0.1-0.1-0.1c-0.5-1.1-1.2-2-2.2-2.7c-1-0.7-2.1-1-3.3-1s-2.3,0.4-3.3,1c-1,0.7-1.7,1.6-2.2,2.7
	c-1.8,4.4-4.1,8.7-4.7,13.3c-0.2,2-0.1,4.1,0.3,6.1c-4.2-9.3-6.5-19.3-6.5-29.5c0-2.6,0.1-5.1,0.4-7.7c0.2-2.1,0.6-4.2,1-6.2
	c2.3-11.1,7.2-21.6,14.3-30.5c3.4-1.9,6.2-4.8,8-8.3c0.6-1.3,1.1-2.6,1.3-4c-0.4,0.1-0.8,0.1-1.2,0.1c-0.1,0-0.2,0-0.4,0l0,0
	c-0.4,0-0.8-0.1-1.2-0.3c-0.4-0.2-0.7-0.5-0.9-0.9c-0.2-0.4-0.3-0.8-0.2-1.2c0-0.4,0.2-0.8,0.5-1.2c0.2-0.2,0.3-0.4,0.5-0.6
	c0.3-0.3,0.5-0.6,0.8-0.9c0,0,0.1-0.1,0.1-0.1c0.3-0.4,0.6-0.7,0.9-1.1c-0.5-0.8-1.3-1.5-2.1-2c-2.9-1.7-7-0.5-9.1,2.1
	c-2.1,2.6-2.5,6.4-1.8,9.7c0.7,2.8,1.9,5.5,3.5,7.9c-0.2,0.2-0.3,0.4-0.5,0.6c-2.9,3.7-5.4,7.7-7.6,12c0.5-4.7-0.1-9.5-1.8-14
	c-1.7-4.1-4.9-7.6-7.8-11.2c-0.8-1-1.8-1.7-2.9-2.1c-1.2-0.4-2.4-0.4-3.6-0.1c-1.2,0.3-2.2,1-3,1.9c-0.8,0.9-1.3,2.1-1.5,3.3
	c0,0.1,0,0.1,0,0.2c0.4,0.2,0.8,0.5,1.2,0.8c0.5,0.3,0.9,0.8,1.1,1.4c0.2,0.6,0.3,1.2,0.1,1.8c-0.1,0.6-0.4,1.1-0.9,1.6
	c-0.4,0.4-1,0.7-1.6,0.8l-0.1,0c0.2,1.5,0.4,3,0.8,4.5c1.1,4.1,3,8,5.7,11.3c2.7,3.3,6,6.1,9.7,8.1c0.2,0.1,0.5,0.3,0.7,0.4
	c-2.1,6-3.5,12.3-4,18.7c-0.3,3.8-0.3,7.5,0.1,11.3l0-0.1c-0.8-4.2-3-8-6.3-10.7c-4.9-4-11.7-5.5-17-8.7c-0.6-0.4-1.2-0.5-1.9-0.6
	c-0.7,0-1.3,0.2-1.9,0.5c-0.6,0.4-1,0.9-1.3,1.5c-0.3,0.6-0.4,1.3-0.3,1.9l0,0.1c0.8,0.3,1.5,0.7,2.3,1.1c0.4,0.2,0.8,0.5,1.2,0.8
	c0.5,0.3,0.9,0.8,1.1,1.4c0.2,0.6,0.3,1.2,0.1,1.8s-0.4,1.1-0.9,1.6c-0.4,0.4-1,0.7-1.6,0.8l-0.1,0c0,0-0.1,0-0.1,0
	c1.3,3.2,3.2,6.1,5.5,8.7c2.9,3.1,6.4,5.6,10.2,7.3c3.9,1.7,8,2.6,12.3,2.6h0c1.1,5,2.8,9.8,5,14.5h17.7c0.1-0.2,0.1-0.4,0.2-0.6
	c-1.6,0.1-3.3,0-4.9-0.3c1.3-1.6,2.6-3.2,3.9-4.9c0,0,0.1-0.1,0.1-0.1c0.7-0.8,1.3-1.6,2-2.5l0,0C113.3,470.1,113,467.6,112.4,465.2
	L112.4,465.2z M92.1,425.2L92.1,425.2L92.1,425.2L92.1,425.2z M88.1,460.6l-0.2-0.3c0-0.2,0-0.5,0-0.7c0-0.1,0-0.1,0-0.2
	C88,459.8,88.1,460.2,88.1,460.6L88.1,460.6z"/>
<path class="st0" d="M2.5,227c-0.7,0-1.3-0.3-1.8-0.7c-0.5-0.5-0.7-1.1-0.7-1.8v-17c0-0.7,0.3-1.3,0.7-1.8c0.5-0.5,1.1-0.7,1.8-0.7
	s1.3,0.3,1.8,0.7c0.5,0.5,0.7,1.1,0.7,1.8v17c0,0.7-0.3,1.3-0.7,1.8C3.8,226.7,3.2,227,2.5,227L2.5,227z"/>
<path class="st1" d="M69,162c0-0.7,0.3-1.3,0.7-1.8c0.5-0.5,1.1-0.7,1.8-0.7h17c0.7,0,1.3,0.3,1.8,0.7c0.5,0.5,0.7,1.1,0.7,1.8
	c0,0.7-0.3,1.3-0.7,1.8c-0.5,0.5-1.1,0.7-1.8,0.7h-17c-0.7,0-1.3-0.3-1.8-0.7C69.3,163.3,69,162.7,69,162z"/>
<path class="st0" d="M3,289c-0.7,0-1.3-0.3-1.8-0.7c-0.5-0.5-0.7-1.1-0.7-1.8v-17c0-0.7,0.3-1.3,0.7-1.8c0.5-0.5,1.1-0.7,1.8-0.7
	s1.3,0.3,1.8,0.7c0.5,0.5,0.7,1.1,0.7,1.8v17c0,0.7-0.3,1.3-0.7,1.8C4.3,288.7,3.7,289,3,289L3,289z"/>
<path class="st1" d="M98,164.5c1.4,0,2.5-1.1,2.5-2.5c0-1.4-1.1-2.5-2.5-2.5s-2.5,1.1-2.5,2.5C95.5,163.4,96.6,164.5,98,164.5z"/>
</svg>
