<svg id="Layer_1" data-name="Layer 1" xmlns="http://www.w3.org/2000/svg" viewBox="0 0 539.21 112.38"><defs><style>.cls-1{fill:#fff;}.cls-2{fill:#e21f26;}</style></defs><title>myLogo</title><path class="cls-1" d="M81.16,77.81,81,88.46l-36,.16q-5.32.15-7.44,2.74a10.93,10.93,0,0,0-2.11,7.12v4.7q0,5.64,2.74,8.22T46.86,114a33.86,33.86,0,0,0,9.79-1.65,46.45,46.45,0,0,0,10.88-5A41,41,0,0,0,77.4,98.8v9.86a40.65,40.65,0,0,1-4.7,5.25,46.73,46.73,0,0,1-7.59,5.87,47.82,47.82,0,0,1-9.87,4.7,35.82,35.82,0,0,1-11.82,1.88,28.6,28.6,0,0,1-12.14-2.43,18.71,18.71,0,0,1-8.22-7.2,21.6,21.6,0,0,1-3-11.67v-8.3q0-8.92,5.72-13.94t15.89-5Zm-20-31.17a42.29,42.29,0,0,1,14.8,2.27A16.89,16.89,0,0,1,85,56.67q3,5.47,3,15V125H76.15l-2.35-16.6-.94-1.88V71.7Q72.69,65,69.65,62T57.82,59q-6,0-15,.62L25.09,60.9,23.68,50.09q5.33-.95,11.83-1.72c4.33-.53,8.74-.94,13.23-1.26S57.35,46.64,61.11,46.64Z" transform="translate(-20.08 -15.17)"/><path class="cls-1" d="M146.21,46.49c3.34,0,6.95.11,10.81.32s7.7.47,11.51.78,7.28.73,10.42,1.25l-1.1,10.65q-7.36-.32-14.64-.55t-14.49-.23a82,82,0,0,0-10.81.31q-3.91.48-5.63,2.35c-1.15,1.25-1.73,3.4-1.73,6.42,0,3.66.92,6.06,2.74,7.21a27.32,27.32,0,0,0,8.23,3l21.76,5q9.24,2.35,13.63,6.9t4.38,14.4q0,9.41-3.52,14.18t-10.88,6.42a88.14,88.14,0,0,1-18.64,1.64q-4.23,0-12.61-.31a140.33,140.33,0,0,1-18.4-2l1.1-10.49q3.6.16,7.83.31t8.92.16h9.71a95.87,95.87,0,0,0,13.24-.71c3.18-.46,5.43-1.4,6.73-2.81s2-3.53,2-6.35q0-5.16-3.21-7a33.45,33.45,0,0,0-8.69-3l-21.46-5A29.61,29.61,0,0,1,123,84.94a15.16,15.16,0,0,1-5.48-6.89,28.36,28.36,0,0,1-1.65-10.41q0-8.78,3.13-13.39T128.75,48Q135.41,46.33,146.21,46.49Z" transform="translate(-20.08 -15.17)"/><path class="cls-1" d="M223.8,15.17l.15,29.6q0,5.32-.39,10a48.74,48.74,0,0,1-1.33,8.3l1.57,2.2V124.8h-15V15.17Zm32.73,31.32q20.82,0,20.83,21V124.8H262V71.86q0-7.2-2.27-9.94t-8.07-2.74a32.14,32.14,0,0,0-13.31,3,138,138,0,0,0-16.13,9l-.78-10a82.67,82.67,0,0,1,17.62-10.81A42.9,42.9,0,0,1,256.53,46.49Z" transform="translate(-20.08 -15.17)"/><path class="cls-2" d="M329.88,15.47l15.87,1.8q8.08.93,15.92,2.06t14.94,2.41l-2,11.91-42.79-4.88c-3.11-.35-5.48.16-7.11,1.56s-2.64,3.79-3,7.22L314.6,99.79c-.39,3.42,0,6,1.31,7.79s3.46,2.84,6.58,3.2l42.79,4.87-.73,11.9q-7.21-.35-15.08-1.09t-16-1.58c-5.4-.57-10.7-1.14-15.88-1.74q-9.64-1.1-14.73-7t-4.25-14.6l7.91-69.4q1.15-8.85,7.43-13.34T329.88,15.47ZM306.39,58.34,364.9,65l-1.38,12.14L305,70.48Z" transform="translate(-20.08 -15.17)"/><path class="cls-1" d="M429.71,46.49q5,0,10.8.32t11.51.78q5.73.46,10.42,1.25l-1.1,10.65q-7.36-.32-14.64-.55t-14.49-.23a81.92,81.92,0,0,0-10.8.31q-3.92.48-5.64,2.35c-1.15,1.25-1.72,3.4-1.72,6.42q0,5.49,2.74,7.21A27.14,27.14,0,0,0,425,78l21.77,5q9.24,2.35,13.62,6.9t4.39,14.4q0,9.41-3.53,14.18t-10.88,6.42a88.14,88.14,0,0,1-18.64,1.64q-4.23,0-12.6-.31a140.47,140.47,0,0,1-18.41-2l1.1-10.49q3.6.16,7.83.31t8.93.16h9.71a95.61,95.61,0,0,0,13.23-.71q4.77-.69,6.74-2.81t2-6.35q0-5.16-3.21-7a33.45,33.45,0,0,0-8.69-3l-21.45-5a29.67,29.67,0,0,1-10.42-4.31A15.22,15.22,0,0,1,401,78.05a28.38,28.38,0,0,1-1.64-10.41q0-8.78,3.13-13.39T412.25,48Q418.9,46.33,429.71,46.49Z" transform="translate(-20.08 -15.17)"/><path class="cls-1" d="M524.21,46.49q5,0,10.8.32t11.51.78q5.72.46,10.42,1.25l-1.1,10.65q-7.37-.32-14.64-.55t-14.49-.23a81.86,81.86,0,0,0-10.8.31c-2.62.32-4.49,1.1-5.64,2.35s-1.73,3.4-1.73,6.42q0,5.49,2.75,7.21a27.14,27.14,0,0,0,8.22,3l21.77,5q9.24,2.35,13.62,6.9t4.39,14.4q0,9.41-3.53,14.18t-10.88,6.42a88.14,88.14,0,0,1-18.64,1.64q-4.23,0-12.61-.31a140.33,140.33,0,0,1-18.4-2l1.1-10.49q3.6.16,7.83.31c2.82.11,5.79.16,8.93.16h9.71a95.81,95.81,0,0,0,13.23-.71c3.18-.46,5.43-1.4,6.73-2.81s2-3.53,2-6.35q0-5.16-3.21-7a33.45,33.45,0,0,0-8.69-3l-21.46-5A29.69,29.69,0,0,1,501,84.94a15.16,15.16,0,0,1-5.48-6.89,28.36,28.36,0,0,1-1.65-10.41q0-8.78,3.14-13.39T506.74,48Q513.4,46.33,524.21,46.49Z" transform="translate(-20.08 -15.17)"/></svg>